<svg width="22" height="22" viewBox="0 0 22 22" fill="none" xmlns="http://www.w3.org/2000/svg">
<path d="M1.82992 1.06004C2.54672 0.936575 3.27256 0.873022 3.99992 0.870041C6.48155 0.868007 8.91143 1.57961 10.9999 2.92004C13.0938 1.59721 15.5233 0.903072 17.9999 0.920041C18.7273 0.923022 19.4531 0.986575 20.1699 1.11004C20.4047 1.15052 20.6173 1.2735 20.7695 1.45683C20.9217 1.64017 21.0034 1.87181 20.9999 2.11004V14.11C21.0021 14.257 20.9718 14.4026 20.9113 14.5365C20.8507 14.6704 20.7614 14.7893 20.6497 14.8848C20.538 14.9803 20.4067 15.0499 20.265 15.0889C20.1233 15.1278 19.9747 15.135 19.8299 15.11C18.3969 14.8619 16.9287 14.9031 15.5118 15.2311C14.095 15.5591 12.7581 16.1674 11.5799 17.02L11.4599 17.09H11.3499C11.239 17.1363 11.1201 17.16 10.9999 17.16C10.8798 17.16 10.7608 17.1363 10.6499 17.09H10.5399L10.4199 17.02C9.24996 16.1483 7.9169 15.5204 6.49977 15.1734C5.08263 14.8264 3.61026 14.7675 2.16992 15C2.02511 15.025 1.87657 15.0178 1.73487 14.9789C1.59317 14.9399 1.4618 14.8703 1.35009 14.7748C1.23838 14.6793 1.14909 14.5604 1.08857 14.4265C1.02804 14.2926 0.997774 14.147 0.999916 14V2.00004C1.01032 1.77219 1.0983 1.55475 1.24927 1.38378C1.40023 1.21281 1.60511 1.09858 1.82992 1.06004ZM11.9999 14.35C13.85 13.3767 15.9094 12.8688 17.9999 12.87C18.3299 12.87 18.6599 12.87 18.9999 12.87V2.87004C18.6669 2.85085 18.333 2.85085 17.9999 2.87004C15.8665 2.86768 13.7797 3.49373 11.9999 4.67004V14.35ZM2.99992 12.91C3.33992 12.91 3.66992 12.91 3.99992 12.91C6.09043 12.9088 8.1498 13.4167 9.99992 14.39V4.67004C8.22013 3.49373 6.1333 2.86768 3.99992 2.87004C3.66686 2.85085 3.33297 2.85085 2.99992 2.87004V12.91ZM1.82992 17.06C2.54672 16.9366 3.27256 16.873 3.99992 16.87C6.48155 16.868 8.91143 17.5796 10.9999 18.92C13.0884 17.5796 15.5183 16.868 17.9999 16.87C18.7273 16.873 19.4531 16.9366 20.1699 17.06C20.3001 17.0807 20.4249 17.1269 20.5372 17.1959C20.6494 17.265 20.7469 17.3556 20.824 17.4625C20.9012 17.5693 20.9564 17.6904 20.9866 17.8187C21.0168 17.947 21.0213 18.08 20.9999 18.21C20.9491 18.4697 20.7974 18.6987 20.5781 18.8468C20.3588 18.9948 20.0898 19.05 19.8299 19C18.3969 18.7519 16.9287 18.7931 15.5118 19.1211C14.095 19.4491 12.7581 20.0574 11.5799 20.91C11.4106 21.0306 11.2078 21.0954 10.9999 21.0954C10.792 21.0954 10.5893 21.0306 10.4199 20.91C9.24174 20.0574 7.90485 19.4491 6.48798 19.1211C5.07112 18.7931 3.60294 18.7519 2.16992 19C1.91006 19.05 1.64101 18.9948 1.42171 18.8468C1.20241 18.6987 1.05074 18.4697 0.999916 18.21C0.978518 18.08 0.983038 17.947 1.01322 17.8187C1.0434 17.6904 1.09865 17.5693 1.17578 17.4625C1.25292 17.3556 1.35042 17.265 1.46268 17.1959C1.57494 17.1269 1.69974 17.0807 1.82992 17.06Z" fill="#767676"/>
</svg>
