<svg width="20" height="18" viewBox="0 0 20 18" fill="none" xmlns="http://www.w3.org/2000/svg">
<path d="M17 3.49992H15.72L15.4 2.49992C15.1926 1.91315 14.8077 1.40543 14.2989 1.04708C13.7901 0.688741 13.1824 0.497524 12.56 0.499923H7.44C6.81155 0.501099 6.19933 0.699606 5.68977 1.06743C5.1802 1.43525 4.79901 1.95381 4.6 2.54992L4.28 3.54992H3C2.20435 3.54992 1.44129 3.86599 0.87868 4.4286C0.316071 4.99121 0 5.75427 0 6.54992V14.5499C0 15.3456 0.316071 16.1086 0.87868 16.6712C1.44129 17.2339 2.20435 17.5499 3 17.5499H17C17.7956 17.5499 18.5587 17.2339 19.1213 16.6712C19.6839 16.1086 20 15.3456 20 14.5499V6.54992C20.0066 6.15177 19.9339 5.75628 19.7862 5.38651C19.6384 5.01674 19.4184 4.6801 19.1392 4.39621C18.86 4.11231 18.527 3.88685 18.1597 3.73297C17.7924 3.57909 17.3982 3.49987 17 3.49992ZM18 14.4999C18 14.7651 17.8946 15.0195 17.7071 15.207C17.5196 15.3946 17.2652 15.4999 17 15.4999H3C2.73478 15.4999 2.48043 15.3946 2.29289 15.207C2.10536 15.0195 2 14.7651 2 14.4999V6.49992C2 6.23471 2.10536 5.98035 2.29289 5.79282C2.48043 5.60528 2.73478 5.49992 3 5.49992H5C5.21807 5.51131 5.43386 5.451 5.61443 5.32821C5.795 5.20542 5.93042 5.0269 6 4.81992L6.54 3.17992C6.60709 2.9813 6.7349 2.80879 6.90537 2.68677C7.07584 2.56474 7.28036 2.49938 7.49 2.49992H12.61C12.8196 2.49938 13.0242 2.56474 13.1946 2.68677C13.3651 2.80879 13.4929 2.9813 13.56 3.17992L14.1 4.81992C14.1642 5.01067 14.2844 5.17761 14.445 5.29893C14.6055 5.42025 14.799 5.4903 15 5.49992H17C17.2652 5.49992 17.5196 5.60528 17.7071 5.79282C17.8946 5.98035 18 6.23471 18 6.49992V14.4999ZM10 5.49992C9.20887 5.49992 8.43552 5.73452 7.77772 6.17405C7.11992 6.61357 6.60723 7.23828 6.30448 7.96919C6.00173 8.70009 5.92252 9.50436 6.07686 10.2803C6.2312 11.0562 6.61216 11.7689 7.17157 12.3284C7.73098 12.8878 8.44372 13.2687 9.21964 13.4231C9.99556 13.5774 10.7998 13.4982 11.5307 13.1954C12.2616 12.8927 12.8864 12.38 13.3259 11.7222C13.7654 11.0644 14 10.291 14 9.49992C14 8.43906 13.5786 7.42164 12.8284 6.6715C12.0783 5.92135 11.0609 5.49992 10 5.49992ZM10 11.4999C9.60444 11.4999 9.21776 11.3826 8.88886 11.1629C8.55996 10.9431 8.30362 10.6307 8.15224 10.2653C8.00087 9.89984 7.96126 9.4977 8.03843 9.10974C8.1156 8.72178 8.30608 8.36542 8.58579 8.08571C8.86549 7.80601 9.22186 7.61552 9.60982 7.53835C9.99778 7.46118 10.3999 7.50079 10.7654 7.65216C11.1308 7.80354 11.4432 8.05988 11.6629 8.38878C11.8827 8.71768 12 9.10436 12 9.49992C12 10.0304 11.7893 10.5391 11.4142 10.9141C11.0391 11.2892 10.5304 11.4999 10 11.4999Z" fill="#767676"/>
</svg>
