<svg width="20" height="20" viewBox="0 0 20 20" fill="none" xmlns="http://www.w3.org/2000/svg">
<path d="M15 4.99992H5C4.73478 4.99992 4.48043 5.10528 4.29289 5.29282C4.10536 5.48035 4 5.73471 4 5.99992C4 6.26514 4.10536 6.51949 4.29289 6.70703C4.48043 6.89457 4.73478 6.99992 5 6.99992H15C15.2652 6.99992 15.5196 6.89457 15.7071 6.70703C15.8946 6.51949 16 6.26514 16 5.99992C16 5.73471 15.8946 5.48035 15.7071 5.29282C15.5196 5.10528 15.2652 4.99992 15 4.99992ZM15 8.99992H5C4.73478 8.99992 4.48043 9.10528 4.29289 9.29282C4.10536 9.48035 4 9.73471 4 9.99992C4 10.2651 4.10536 10.5195 4.29289 10.707C4.48043 10.8946 4.73478 10.9999 5 10.9999H15C15.2652 10.9999 15.5196 10.8946 15.7071 10.707C15.8946 10.5195 16 10.2651 16 9.99992C16 9.73471 15.8946 9.48035 15.7071 9.29282C15.5196 9.10528 15.2652 8.99992 15 8.99992ZM17 -7.62939e-05H3C2.20435 -7.62939e-05 1.44129 0.315994 0.87868 0.878603C0.316071 1.44121 0 2.20427 0 2.99992V12.9999C0 13.7956 0.316071 14.5586 0.87868 15.1212C1.44129 15.6839 2.20435 15.9999 3 15.9999H14.59L18.29 19.7099C18.3834 19.8026 18.4943 19.8759 18.6161 19.9257C18.7379 19.9755 18.8684 20.0007 19 19.9999C19.1312 20.0033 19.2613 19.9759 19.38 19.9199C19.5626 19.8449 19.7189 19.7175 19.8293 19.5538C19.9396 19.3901 19.999 19.1973 20 18.9999V2.99992C20 2.20427 19.6839 1.44121 19.1213 0.878603C18.5587 0.315994 17.7956 -7.62939e-05 17 -7.62939e-05ZM18 16.5899L15.71 14.2899C15.6166 14.1972 15.5057 14.1239 15.3839 14.0742C15.2621 14.0244 15.1316 13.9992 15 13.9999H3C2.73478 13.9999 2.48043 13.8946 2.29289 13.707C2.10536 13.5195 2 13.2651 2 12.9999V2.99992C2 2.73471 2.10536 2.48035 2.29289 2.29282C2.48043 2.10528 2.73478 1.99992 3 1.99992H17C17.2652 1.99992 17.5196 2.10528 17.7071 2.29282C17.8946 2.48035 18 2.73471 18 2.99992V16.5899Z" fill="#767676"/>
</svg>
