<svg width="64" height="34" viewBox="0 0 64 34" fill="none" xmlns="http://www.w3.org/2000/svg"><path d="M63.255 2.87383H59.1757V10.0491H63.255V2.87383Z" fill="#3965EB"/><path d="M63.255 2.87359C63.255 2.11147 62.9522 1.38056 62.4133 0.841656C61.8744 0.302753 61.1435 0 60.3814 0L59.1757 0V5.74719H60.3814C61.1435 5.74719 61.8744 5.44444 62.4133 4.90553C62.9522 4.36663 63.255 3.63572 63.255 2.87359Z" fill="#0F46B1"/><path d="M11.1857 34.0005C10.9767 34.0006 10.7697 33.9144 10.5766 33.7467L-0.745178 19.5005L10.5765 5.25516C10.7696 5.08719 10.9766 5.00065 11.1857 5.00049H63.2548V30.9798C63.2548 31.7809 63.1028 32.5492 62.8321 33.1157C62.5614 33.6822 62.1942 34.0005 61.8114 34.0005H11.1857Z" fill="#3965EB"/></svg>