<svg width="14" height="16" viewBox="0 0 14 16" fill="none" xmlns="http://www.w3.org/2000/svg"><path d="M5.85415 12.6782C6.0329 12.4997 6.0329 12.2086 5.85415 12.0302L5.26147 11.4375C5.08301 11.2588 4.79197 11.2588 4.6135 11.4375L4.02082 12.0302L4.02082 3.875C4.02082 3.11675 4.63757 2.5 5.39582 2.5C5.77481 2.5 6.08332 2.19148 6.08332 1.8125L6.08332 1.35417C6.08332 0.975182 5.77481 0.666667 5.39582 0.666667C3.62665 0.666667 2.18749 2.10583 2.18749 3.875L2.18749 12.0302L1.59481 11.4375C1.41634 11.2588 1.1253 11.2588 0.946837 11.4375L0.354155 12.0302C0.175405 12.2086 0.175405 12.4997 0.354155 12.6782L2.94202 15.2663C3.03168 15.3557 3.17663 15.3557 3.26629 15.2663L5.85415 12.6782Z" fill="#C9C9C9"/><path d="M8.14585 3.32185C7.9671 3.50031 7.9671 3.79107 8.14585 3.96982L8.73854 4.5625C8.91763 4.74159 9.20713 4.74188 9.38651 4.5625L9.97919 3.96982L9.97919 12.125C9.97919 12.8833 9.36244 13.5 8.60419 13.5C8.2252 13.5 7.91669 13.8085 7.91669 14.1875L7.91669 14.6458C7.91669 15.0248 8.2252 15.3333 8.60419 15.3333C10.3734 15.3333 11.8125 13.8942 11.8125 12.125L11.8125 3.96982L12.4052 4.5625C12.5843 4.74159 12.8738 4.74188 13.0532 4.5625L13.6459 3.96982C13.8246 3.79104 13.8246 3.5006 13.6459 3.32185L11.058 0.733698C10.9683 0.644323 10.8234 0.644323 10.7337 0.733698L8.14585 3.32185Z" fill="#C9C9C9"/></svg>