<svg width="87" height="87" viewBox="0 0 87 87" fill="none" xmlns="http://www.w3.org/2000/svg">
<path fill-rule="evenodd" clip-rule="evenodd" d="M50.1758 32.8371C50.1758 33.2017 49.8803 33.4972 49.5157 33.4972H45.0949C44.8153 33.4972 44.5663 33.6737 44.4706 33.9364C42.7338 38.6989 40.4714 42.6356 37.6267 45.9452C37.3771 46.2356 37.416 46.6777 37.7239 46.9053C40.8902 49.245 44.6301 51.0347 48.9437 52.2538C49.3234 52.3612 49.5323 52.7716 49.3884 53.139L48.1793 56.2253C48.0568 56.5382 47.7184 56.7095 47.395 56.6186C42.165 55.1484 37.8086 52.928 34.2092 50.0156C33.9627 49.8162 33.6102 49.8141 33.3614 50.0107C29.5804 53 25.0377 55.2352 19.6446 56.8346C19.3332 56.9269 19.0026 56.7755 18.8492 56.4891C18.4318 55.7095 17.7787 54.6601 17.1684 53.8216C16.8765 53.4207 17.0685 52.8228 17.5472 52.6933C22.4586 51.3646 26.6024 49.511 30.0292 46.9804C30.3384 46.752 30.3756 46.3077 30.1232 46.0178C27.1784 42.6346 24.8737 38.6023 23.0379 33.9207C22.938 33.6661 22.6932 33.4972 22.4197 33.4972H17.8414C17.4768 33.4972 17.1813 33.2017 17.1813 32.8371V29.9514C17.1813 29.5869 17.4768 29.2913 17.8414 29.2913H31.6215C32.0556 29.2913 32.3704 28.88 32.2381 28.4665C31.8797 27.3472 31.3664 26.0557 30.812 24.8995C30.6318 24.5237 30.8251 24.0702 31.2253 23.9536L34.5543 22.9837C34.8485 22.898 35.1634 23.0255 35.3095 23.2947C36.1026 24.7551 36.9462 26.5695 37.3937 27.9054C37.469 28.1303 37.3407 28.3692 37.1144 28.4403C36.6388 28.5896 36.7464 29.2913 37.2448 29.2913H49.5157C49.8803 29.2913 50.1758 29.5869 50.1758 29.9514V32.8371ZM34.3249 43.0153C34.0764 43.3032 33.6351 43.311 33.376 43.0325C31.0329 40.5138 29.1474 37.6216 27.7193 34.4021C27.529 33.9731 27.8478 33.4972 28.3171 33.4972H38.8355C39.2913 33.4972 39.6096 33.9485 39.4455 34.3738C38.1512 37.7283 36.4288 40.5777 34.3249 43.0153Z" fill="white"/>
<path fill-rule="evenodd" clip-rule="evenodd" d="M47.5081 64.0631C47.0609 64.0631 46.7431 63.6279 46.8794 63.2019L55.0502 37.6551C55.1377 37.3817 55.3918 37.1961 55.6789 37.1961H61.8393C62.126 37.1961 62.38 37.3813 62.4677 37.6544L70.6731 63.2012C70.8099 63.6272 70.4921 64.0631 70.0446 64.0631H65.8113C65.5245 64.0631 65.2705 63.8779 65.1828 63.6049L63.374 57.9726C63.2863 57.6996 63.0323 57.5144 62.7455 57.5144H54.693C54.4086 57.5144 54.1561 57.6965 54.0665 57.9665L52.1927 63.611C52.1031 63.8809 51.8506 64.0631 51.5662 64.0631H47.5081ZM58.0542 41.7844C57.3925 44.5683 56.6392 47.4311 55.8859 50.0676L55.2866 52.3994C55.1793 52.817 55.4947 53.2238 55.9259 53.2238H61.4989C61.9358 53.2238 62.2522 52.8068 62.1346 52.386L61.4866 50.0676C60.9119 48.1436 60.3889 46.0817 59.87 44.0364C59.677 43.2755 59.4845 42.5169 59.2902 41.7685C59.2174 41.4883 58.9643 41.2933 58.6749 41.2933C58.3792 41.2933 58.1226 41.4967 58.0542 41.7844Z" fill="white"/>
<path d="M25.593 2.40875C25.593 1.56561 25.593 1.14404 25.4289 0.822002C25.2846 0.538729 25.0543 0.308421 24.771 0.164087C24.449 0 24.0274 0 23.1843 0H6.02188C3.91403 0 2.8601 0 2.055 0.410216C1.34682 0.771053 0.771053 1.34682 0.410216 2.055C0 2.8601 0 3.91403 0 6.02188V23.1843C0 24.0274 0 24.449 0.164087 24.771C0.308421 25.0543 0.538729 25.2846 0.822002 25.4289C1.14404 25.593 1.56561 25.593 2.40875 25.593H3.07116C3.9143 25.593 4.33587 25.593 4.65791 25.4289C4.94118 25.2846 5.17149 25.0543 5.31583 24.771C5.47991 24.449 5.47991 24.0274 5.47991 23.1843V11.5018C5.47991 9.39394 5.47991 8.34001 5.89013 7.53492C6.25097 6.82674 6.82674 6.25097 7.53492 5.89013C8.34001 5.47991 9.39394 5.47991 11.5018 5.47991H23.1843C24.0274 5.47991 24.449 5.47991 24.771 5.31583C25.0543 5.17149 25.2846 4.94118 25.4289 4.65791C25.593 4.33587 25.593 3.9143 25.593 3.07116V2.40875Z" fill="white"/>
<path d="M61.407 2.40875C61.407 1.56561 61.407 1.14404 61.5711 0.822002C61.7154 0.538729 61.9457 0.308421 62.229 0.164087C62.551 0 62.9726 0 63.8157 0H80.9781C83.086 0 84.1399 0 84.945 0.410216C85.6532 0.771053 86.2289 1.34682 86.5898 2.055C87 2.8601 87 3.91403 87 6.02188V23.1843C87 24.0274 87 24.449 86.8359 24.771C86.6916 25.0543 86.4613 25.2846 86.178 25.4289C85.856 25.593 85.4344 25.593 84.5912 25.593H83.9288C83.0857 25.593 82.6641 25.593 82.3421 25.4289C82.0588 25.2846 81.8285 25.0543 81.6842 24.771C81.5201 24.449 81.5201 24.0274 81.5201 23.1843V11.5018C81.5201 9.39394 81.5201 8.34001 81.1099 7.53492C80.749 6.82674 80.1733 6.25097 79.4651 5.89013C78.66 5.47991 77.6061 5.47991 75.4982 5.47991H63.8157C62.9726 5.47991 62.551 5.47991 62.229 5.31583C61.9457 5.17149 61.7154 4.94118 61.5711 4.65791C61.407 4.33587 61.407 3.9143 61.407 3.07116V2.40875Z" fill="white"/>
<path d="M61.407 84.5912C61.407 85.4344 61.407 85.856 61.5711 86.178C61.7154 86.4613 61.9457 86.6916 62.229 86.8359C62.551 87 62.9726 87 63.8157 87H80.9781C83.086 87 84.1399 87 84.945 86.5898C85.6532 86.2289 86.2289 85.6532 86.5898 84.945C87 84.1399 87 83.086 87 80.9781V63.8157C87 62.9726 87 62.551 86.8359 62.229C86.6916 61.9457 86.4613 61.7154 86.178 61.5711C85.856 61.407 85.4344 61.407 84.5912 61.407H83.9288C83.0857 61.407 82.6641 61.407 82.3421 61.5711C82.0588 61.7154 81.8285 61.9457 81.6842 62.229C81.5201 62.551 81.5201 62.9726 81.5201 63.8157V75.4982C81.5201 77.6061 81.5201 78.66 81.1099 79.4651C80.749 80.1733 80.1733 80.749 79.4651 81.1099C78.66 81.5201 77.6061 81.5201 75.4982 81.5201H63.8157C62.9726 81.5201 62.551 81.5201 62.229 81.6842C61.9457 81.8285 61.7154 82.0588 61.5711 82.3421C61.407 82.6641 61.407 83.0857 61.407 83.9288V84.5912Z" fill="white"/>
<path d="M25.593 84.5912C25.593 85.4344 25.593 85.856 25.4289 86.178C25.2846 86.4613 25.0543 86.6916 24.771 86.8359C24.449 87 24.0274 87 23.1843 87H6.02188C3.91403 87 2.8601 87 2.055 86.5898C1.34682 86.2289 0.771053 85.6532 0.410216 84.945C0 84.1399 0 83.086 0 80.9781V63.8157C0 62.9726 0 62.551 0.164087 62.229C0.308421 61.9457 0.538729 61.7154 0.822002 61.5711C1.14404 61.407 1.56561 61.407 2.40875 61.407H3.07116C3.9143 61.407 4.33587 61.407 4.65791 61.5711C4.94118 61.7154 5.17149 61.9457 5.31583 62.229C5.47991 62.551 5.47991 62.9726 5.47991 63.8157V75.4982C5.47991 77.6061 5.47991 78.66 5.89013 79.4651C6.25097 80.1733 6.82674 80.749 7.53492 81.1099C8.34001 81.5201 9.39394 81.5201 11.5018 81.5201H23.1843C24.0274 81.5201 24.449 81.5201 24.771 81.6842C25.0543 81.8285 25.2846 82.0588 25.4289 82.3421C25.593 82.6641 25.593 83.0857 25.593 83.9288V84.5912Z" fill="white"/>
</svg>
