<svg version="1.0" xmlns="http://www.w3.org/2000/svg" viewBox="0 0 330.000000 512.000000"
 preserveAspectRatio="xMidYMid meet"><g transform="translate(0.000000,512.000000) scale(0.100000,-0.100000)"
fill="#fff" stroke="none"><path d="M1495 5110 c-214 -33 -430 -144 -586 -299 -133 -133 -227 -298 -280
-491 -23 -84 -23 -92 -27 -697 l-3 -613 -240 0 c-221 0 -243 -2 -279 -20 -72
-37 -80 -67 -80 -307 0 -215 9 -332 36 -463 138 -667 700 -1196 1373 -1291
l91 -13 0 -308 0 -308 -390 0 c-372 0 -393 -1 -430 -20 -45 -23 -80 -80 -80
-130 0 -50 35 -107 80 -130 38 -20 57 -20 970 -20 913 0 932 0 970 20 45 23
80 80 80 130 0 50 -35 107 -80 130 -37 19 -58 20 -430 20 l-390 0 0 308 0 308
91 13 c636 90 1178 569 1349 1192 43 159 52 237 57 505 5 251 5 262 -16 302
-14 28 -35 49 -61 62 -36 18 -58 20 -279 20 l-240 0 -3 613 c-4 587 -5 615
-25 687 -58 209 -148 367 -286 504 -136 136 -297 227 -487 275 -97 25 -307 36
-405 21z m302 -306 c150 -31 275 -99 382 -207 98 -99 160 -207 199 -341 16
-56 17 -135 17 -936 0 -710 -3 -885 -14 -930 -71 -285 -299 -506 -583 -564
-400 -83 -799 182 -882 586 -14 67 -16 187 -16 903 0 714 2 836 16 903 83 404
481 669 881 586z m-1194 -2251 c8 -231 55 -388 167 -561 145 -225 361 -378
640 -455 109 -29 371 -29 480 0 404 111 677 384 782 783 14 52 21 123 25 233
l6 157 150 0 150 0 -6 -167 c-14 -389 -138 -678 -401 -938 -201 -199 -415
-313 -696 -372 -118 -24 -382 -24 -500 0 -284 59 -504 178 -705 381 -159 160
-259 320 -324 520 -47 142 -63 238 -68 414 l-6 162 150 0 150 0 6 -157z"/></g></svg>