<svg width="18" height="20" viewBox="0 0 18 20" fill="none" xmlns="http://www.w3.org/2000/svg">
<path d="M13.3823 16.0785C15.2321 14.2287 15.2321 11.219 13.3823 9.36916C13.1373 9.1242 12.7401 9.12421 12.4951 9.36916C12.2501 9.61412 12.2501 10.0114 12.4951 10.2563C13.8556 11.6169 13.8556 13.8308 12.4951 15.1913L13.3823 16.0785ZM13.3823 16.0785C13.2599 16.201 13.0991 16.2623 12.9387 16.2623M13.3823 16.0785L12.9387 16.2623M12.9387 16.2623C12.7783 16.2623 12.6176 16.201 12.4951 16.0785C12.2501 15.8335 12.2501 15.4363 12.4951 15.1913L12.9387 16.2623Z" fill="#767676" stroke="#767676" stroke-width="0.2"/>
<path d="M11.404 14.4517C12.3569 13.4988 12.3569 11.9486 11.404 10.9957C11.159 10.7507 10.7618 10.7507 10.5168 10.9957C10.2718 11.2406 10.2718 11.6379 10.5168 11.8829C10.9804 12.3464 10.9804 13.101 10.5168 13.5645L11.404 14.4517ZM11.404 14.4517C11.2816 14.5742 11.1208 14.6355 10.9604 14.6355M11.404 14.4517L10.9604 14.6355M10.9604 14.6355C10.8 14.6355 10.6393 14.5742 10.5168 14.4517C10.2718 14.2067 10.2718 13.8095 10.5168 13.5645L10.9604 14.6355Z" fill="#767676" stroke="#767676" stroke-width="0.2"/>
<path d="M15.3657 7.78695L15.3657 7.78694C15.1207 7.542 14.7235 7.54198 14.4786 7.78694L15.3657 7.78695ZM15.3657 7.78695C18.0881 10.5093 18.0881 14.9388 15.3657 17.6611C15.2433 17.7836 15.0826 17.8449 14.9222 17.8449C14.7617 17.8449 14.601 17.7836 14.4785 17.6611C14.2336 17.4161 14.2335 17.0189 14.4785 16.7739C16.7116 14.5409 16.7116 10.9072 14.4785 8.67413L15.3657 7.78695Z" fill="#767676" stroke="#767676" stroke-width="0.2"/>
<path d="M3.03236 16.8208L3.03248 16.8208C3.968 16.8371 5.12009 16.8544 5.70921 16.8428C6.37201 16.8297 6.76528 16.5467 6.97878 16.306M3.03236 16.8208L7.357 15.0432L7.2575 15.0532L7.35701 15.0432C7.4051 15.5242 7.27316 15.9742 6.97878 16.306M3.03236 16.8208C2.80548 16.8165 2.59665 16.9484 2.50276 17.1563L1.79177 18.7307C1.68694 18.9628 1.45851 19.0999 1.21973 19.0999C1.13324 19.0999 1.04544 19.0819 0.96186 19.0442L0.961835 19.0442C0.646084 18.9016 0.505679 18.53 0.648296 18.2142L1.35929 16.6399L1.43499 16.6741L1.35929 16.6399C1.65967 15.9748 2.32515 15.5549 3.05425 15.5662L3.05444 15.5662C3.98233 15.5825 5.11744 15.5995 5.68442 15.5884M3.03236 16.8208L5.68442 15.5884M6.97878 16.306L6.90397 16.2397L6.97877 16.306C6.97878 16.306 6.97878 16.306 6.97878 16.306ZM6.50517 12.2831L7.90106 11.7535L7.90113 11.7535C7.91722 11.7474 7.93295 11.7406 7.94828 11.7333L7.94844 11.7333C8.36776 11.5334 8.59983 11.0752 8.51289 10.619L8.30804 9.54359C8.29225 9.46074 8.31032 9.37799 8.35923 9.30926L8.35926 9.30922C8.40814 9.24047 8.48039 9.19624 8.56388 9.18396L9.60639 9.03072L9.60641 9.03072C9.92786 8.9834 10.2035 8.78011 10.3437 8.48708C10.4838 8.19408 10.4691 7.85186 10.3042 7.57203L8.31716 4.19925L8.31716 4.19925C8.02645 3.70584 7.91172 3.1218 7.99415 2.55509L8.13052 1.61763L8.13052 1.61762C8.18037 1.27478 7.94291 0.956371 7.6 0.906517C7.25711 0.856667 6.93875 1.09417 6.8889 1.43704M6.50517 12.2831L8.03156 1.60323C8.07347 1.31502 7.87385 1.04738 7.58561 1.00548C7.29737 0.963571 7.02976 1.16322 6.98786 1.45143L6.85149 2.38889C6.73132 3.21506 6.89852 4.06614 7.32229 4.7854L9.11852 7.83429L9.0117 7.84999M6.50517 12.2831L7.3948 12.8427L7.39487 12.8427C7.41319 12.8543 7.43085 12.8667 7.44774 12.8799L7.44787 12.88C7.79642 13.1533 7.95758 13.5915 7.84805 13.9992L7.84805 13.9993C7.778 14.2599 7.63319 14.4424 7.52602 14.5775L7.52333 14.5809L7.45413 14.526L7.52333 14.5809C7.44981 14.6736 7.40627 14.7297 7.3803 14.7924L6.50517 12.2831ZM6.8889 1.43704L6.98763 1.45139L6.8889 1.43703L6.8889 1.43704ZM6.8889 1.43704L6.75253 2.3745C6.62909 3.2232 6.8008 4.09728 7.23613 4.83616L7.31922 4.78721L7.23614 4.83616L9.0117 7.84999M9.0117 7.84999L9.06651 7.94301L8.39588 8.0416C7.99834 8.1001 7.65118 8.31262 7.4183 8.63999C7.18543 8.96736 7.0986 9.36501 7.17376 9.75967L7.35759 10.7247M9.0117 7.84999L8.38134 7.94266L8.38132 7.94267C7.95682 8.00513 7.58549 8.23245 7.33682 8.58202C7.08814 8.93161 6.99526 9.35695 7.07553 9.77838L7.15954 9.76237L7.07553 9.77838L7.24365 10.661M7.24365 10.661L7.32212 10.6312L7.35759 10.7247M7.24365 10.661L7.25936 10.7434L7.35759 10.7247M7.24365 10.661L5.54232 11.3065C5.19306 11.439 4.95257 11.7527 4.91551 12.1245M7.35759 10.7247L5.57779 11.4L4.91551 12.1245M6.54757 13.7921L5.36835 13.0504L5.42159 12.9657L5.36835 13.0503C5.0521 12.8514 4.87842 12.4963 4.91551 12.1245M6.54757 13.7921L4.91551 12.1245C4.91551 12.1245 4.91551 12.1245 4.91551 12.1245M6.54757 13.7921C6.54517 13.7951 6.54277 13.7982 6.54038 13.8012C6.54038 13.8012 6.54038 13.8012 6.54038 13.8012L6.54757 13.7921ZM5.68442 15.5884C5.6844 15.5884 5.68439 15.5884 5.68437 15.5884L5.68639 15.6883L5.68442 15.5884Z" fill="#767676" stroke="#767676" stroke-width="0.2"/>
</svg>
