<svg width="20" height="20" viewBox="0 0 20 20" fill="none" xmlns="http://www.w3.org/2000/svg">
<path d="M0.589989 6.63993C0.589989 6.63993 0.589989 6.63993 0.589989 6.58993C1.29459 4.66615 2.57307 3.00521 4.2525 1.83179C5.93192 0.65837 7.93124 0.0290985 9.97999 0.0290985C12.0287 0.0290985 14.0281 0.65837 15.7075 1.83179C17.3869 3.00521 18.6654 4.66615 19.37 6.58993C19.37 6.58993 19.37 6.58993 19.37 6.63993C20.1569 8.81082 20.1569 11.189 19.37 13.3599C19.37 13.3599 19.37 13.3599 19.37 13.4099C18.6654 15.3337 17.3869 16.9946 15.7075 18.1681C14.0281 19.3415 12.0287 19.9708 9.97999 19.9708C7.93124 19.9708 5.93192 19.3415 4.2525 18.1681C2.57307 16.9946 1.29459 15.3337 0.589989 13.4099C0.589989 13.4099 0.589989 13.4099 0.589989 13.3599C-0.196886 11.189 -0.196886 8.81082 0.589989 6.63993ZM17.74 11.9999C18.0868 10.6891 18.0868 9.31071 17.74 7.99993H15.88C16.04 9.32846 16.04 10.6714 15.88 11.9999H17.74ZM16.92 13.9999H15.52C15.2853 14.8918 14.9498 15.754 14.52 16.5699C15.5007 15.9019 16.3205 15.024 16.92 13.9999ZM15.52 5.99993H16.92C16.3291 4.97901 15.5198 4.10139 14.55 3.42993C14.9694 4.24717 15.2948 5.10935 15.52 5.99993ZM11 17.6999C12.2282 16.7986 13.0908 15.4852 13.43 13.9999H11V17.6999ZM11 11.9999H13.86C14.0466 10.6731 14.0466 9.32673 13.86 7.99993H11V11.9999ZM11 5.99993H13.43C13.0908 4.51469 12.2282 3.20125 11 2.29993V5.99993ZM3.07999 5.99993H4.47999C4.71471 5.10809 5.0502 4.24587 5.47999 3.42993C4.49928 4.098 3.67949 4.97587 3.07999 5.99993ZM8.99999 2.29993C7.77175 3.20125 6.90914 4.51469 6.56999 5.99993H8.99999V2.29993ZM8.99999 17.6999V13.9999H6.56999C6.90914 15.4852 7.77175 16.7986 8.99999 17.6999ZM6.13999 11.9999H8.99999V7.99993H6.13999C5.95338 9.32673 5.95338 10.6731 6.13999 11.9999ZM5.44999 16.5699C5.0202 15.754 4.68471 14.8918 4.44999 13.9999H3.04999C3.64948 15.024 4.46929 15.9019 5.44999 16.5699ZM2.25999 11.9999H4.11999C4.03866 11.3364 3.99858 10.6684 3.99999 9.99993C3.99889 9.33143 4.03896 8.6635 4.11999 7.99993H2.25999C1.91322 9.31071 1.91322 10.6891 2.25999 11.9999Z" fill="#767676"/>
</svg>
